<?xml version="1.0" encoding="UTF-8" standalone="no"?>
<svg
   xmlns:dc="http://purl.org/dc/elements/1.1/"
   xmlns:cc="http://creativecommons.org/ns#"
   xmlns:rdf="http://www.w3.org/1999/02/22-rdf-syntax-ns#"
   xmlns:svg="http://www.w3.org/2000/svg"
   xmlns="http://www.w3.org/2000/svg"
   version="1.1"
   width="1221.1"
   height="519.95001"
   id="svg2"
   xml:space="preserve"><metadata
     id="metadata8"><rdf:RDF><cc:Work
         rdf:about=""><dc:format>image/svg+xml</dc:format><dc:type
           rdf:resource="http://purl.org/dc/dcmitype/StillImage" /><dc:title></dc:title></cc:Work></rdf:RDF></metadata><defs
     id="defs6"><clipPath
       id="clipPath16"><path
         d="m 0,841.89 1190.55,0 L 1190.55,0 0,0 0,841.89 z"
         id="path18" /></clipPath></defs><g
     transform="matrix(1.25,0,0,-1.25,-123.474,737.88012)"
     id="g10"><g
       id="g12"><g
         clip-path="url(#clipPath16)"
         id="g14"><g
           transform="translate(1075.6592,227.5811)"
           id="g20"><path
             d="m 0,0 c 0,-29.388 -23.841,-53.237 -53.244,-53.237 l -870.385,0 c -29.408,0 -53.251,23.849 -53.251,53.237 l 0,309.485 c 0,29.409 23.843,53.238 53.251,53.238 l 870.385,0 C -23.841,362.723 0,338.894 0,309.485 L 0,0 z"
             id="path22"
             style="fill:#005091;fill-opacity:1;fill-rule:nonzero;stroke:none" /></g><path
           d="m 770.479,273.188 -198.961,0 0,218.268 198.961,0 0,-218.268 z"
           id="path24"
           style="fill:#ffffff;fill-opacity:1;fill-rule:nonzero;stroke:none" /><g
           transform="translate(864.7305,474.0571)"
           id="g26"><path
             d="m 0,0 -62.082,0 0,-41.579 61.586,0 c 28.682,0 51.944,-23.26 51.944,-51.934 0,-28.688 -23.262,-51.928 -51.944,-51.928 l -61.586,0 0,-41.571 62.082,0 c 51.627,0 93.504,41.854 93.504,93.499 C 93.504,-41.872 51.627,0 0,0"
             id="path28"
             style="fill:#ffffff;fill-opacity:1;fill-rule:nonzero;stroke:none" /></g><g
           transform="translate(209.1982,317.8047)"
           id="g30"><path
             d="M 0,0 29.587,26.385 C 34.503,19.382 41.301,13.697 49.971,9.352 58.644,4.989 67.859,2.815 77.61,2.815 c 8.001,0 14.879,1.413 20.627,4.228 5.752,2.81 8.628,7.247 8.628,13.3 0,5.206 -1.871,9.168 -5.613,11.896 -3.742,2.732 -9.174,5.084 -16.296,7.043 L 52.789,47.741 C 23.181,55.578 8.374,72.794 8.374,99.386 c 0,17.501 6.84,31.895 20.507,43.161 13.672,11.266 30.939,16.907 51.797,16.907 16.239,0 29.664,-2.205 40.268,-6.604 10.607,-4.39 19.953,-11.627 28.03,-21.705 l -28.95,-25.743 c -4.316,5.642 -10.05,9.927 -17.201,12.872 -7.154,2.945 -14.535,4.421 -22.147,4.421 -7.497,0 -13.586,-1.386 -18.273,-4.14 -4.684,-2.756 -7.027,-7.188 -7.027,-13.297 0,-4.839 2.015,-8.494 6.038,-10.954 4.018,-2.457 10.139,-4.796 18.353,-7.002 l 29.642,-7.75 c 29.766,-7.78 44.585,-25.209 44.457,-52.267 0,-19.212 -7.354,-34.219 -22.052,-45.016 C 117.112,-28.542 99.479,-33.938 78.914,-33.938 42.355,-33.848 16.052,-22.539 0,0"
             id="path32"
             style="fill:#ffffff;fill-opacity:1;fill-rule:nonzero;stroke:none" /></g><g
           transform="translate(436.8115,387.7305)"
           id="g34"><path
             d="m 0,0 30.097,0 c 8.369,0 15.006,2.274 19.915,6.836 4.91,4.555 7.363,10.582 7.363,18.073 0,7.841 -2.453,13.899 -7.363,18.204 -4.909,4.297 -11.637,6.455 -20.171,6.455 L 0,49.568 0,0 z m -47.003,-100.66 0,186.987 85.448,0 c 20.517,0 36.629,-5.598 48.354,-16.803 11.72,-11.198 17.579,-25.639 17.579,-43.342 0,-8.126 -1.274,-15.831 -3.829,-23.096 -2.556,-7.266 -6.362,-13.913 -11.424,-19.919 -5.063,-6.013 -11.882,-10.84 -20.45,-14.468 -8.566,-3.638 -18.431,-5.449 -29.598,-5.449 l -39.077,0 0,-63.91 -47.003,0 z"
             id="path36"
             style="fill:#ffffff;fill-opacity:1;fill-rule:nonzero;stroke:none" /></g></g></g></g></svg>
